<svg id="Слой_1" data-name="Слой 1" xmlns="http://www.w3.org/2000/svg" viewBox="0 0 237.64 69.59"><defs><style>.cls-1{fill:#181716;}</style></defs><path class="cls-1" d="M15.81,16.28c1-.11,1.85-.2,2.69-.28s1.76-.11,2.78-.11a19.83,19.83,0,0,1,3.54.32A9.72,9.72,0,0,1,28,17.37a6.69,6.69,0,0,1,2.27,2.25,6.91,6.91,0,0,1,.86,3.61,7.27,7.27,0,0,1-.33,2.29,6.6,6.6,0,0,1-.83,1.75,7,7,0,0,1-1.09,1.29,7.61,7.61,0,0,1-1.11.86l-.55.36,5.7,9.91-1.37.14c-.47,0-1,.06-1.46.06a14.21,14.21,0,0,1-2.45-.2L21.48,28.8l.78-.39c.31-.15.68-.35,1.11-.59a6.16,6.16,0,0,0,1.26-.89,5,5,0,0,0,1-1.31,3.59,3.59,0,0,0,.43-1.81,3.64,3.64,0,0,0-1.18-3,4.62,4.62,0,0,0-3-1,8.56,8.56,0,0,0-1.3.09v19.8l-1.18.11c-.39,0-.77,0-1.14,0l-1.17,0c-.41,0-.84-.07-1.27-.13V16.28Z"/><path class="cls-1" d="M35.68,16.28a14.87,14.87,0,0,1,2.38-.19,15.43,15.43,0,0,1,2.41.19v9.2h7.86v-9.2a15,15,0,0,1,2.38-.19,15.55,15.55,0,0,1,2.42.19V39.73a15.36,15.36,0,0,1-2.39.19,15.15,15.15,0,0,1-2.41-.19V29.59H40.47V39.73a15.24,15.24,0,0,1-2.38.19,15.06,15.06,0,0,1-2.41-.19V16.28Z"/><path class="cls-1" d="M57.87,16.28a14.87,14.87,0,0,1,2.38-.19,15.43,15.43,0,0,1,2.41.19V39.73a15.24,15.24,0,0,1-2.38.19,15.06,15.06,0,0,1-2.41-.19V16.28Z"/><path class="cls-1" d="M67.4,16.28a10.25,10.25,0,0,1,1.93-.19,11,11,0,0,1,2,.19l9.07,14.94V16.28a13.64,13.64,0,0,1,2.24-.19,9.65,9.65,0,0,1,2,.19V39.73a10.33,10.33,0,0,1-1.89.19,11.2,11.2,0,0,1-2-.19L71.61,24.82V39.73a11.45,11.45,0,0,1-2.12.19,11.05,11.05,0,0,1-2.09-.19V16.28Z"/><path class="cls-1" d="M98.92,40.12a10.74,10.74,0,0,1-4.57-.91,8.75,8.75,0,0,1-3.16-2.53,10.86,10.86,0,0,1-1.84-3.82,17.8,17.8,0,0,1-.6-4.81,18.18,18.18,0,0,1,.6-4.84,10.89,10.89,0,0,1,1.84-3.86,8.5,8.5,0,0,1,3.16-2.55,11.91,11.91,0,0,1,9.13,0,8.45,8.45,0,0,1,3.17,2.55,11.06,11.06,0,0,1,1.84,3.86,18.6,18.6,0,0,1,.6,4.84,18.21,18.21,0,0,1-.6,4.81,11,11,0,0,1-1.84,3.82,8.7,8.7,0,0,1-3.17,2.53,10.66,10.66,0,0,1-4.56.91Zm0-4q5.06,0,5-8.09A11.9,11.9,0,0,0,102.75,22,4.11,4.11,0,0,0,99,20q-5.11,0-5.12,8.08t5.09,8.09Z"/><path class="cls-1" d="M113.31,16.28c.92-.11,1.87-.2,2.87-.28s2.11-.11,3.33-.11q6.17,0,9.38,3.07c2.13,2,3.21,5.1,3.21,9.19s-1.09,7.13-3.26,9.07-5.41,2.9-9.69,2.9c-1.11,0-2.13,0-3.06-.11s-1.86-.17-2.78-.28V16.28Zm4.8,19.66c.19,0,.44.05.75.07s.67,0,1.1,0a10.67,10.67,0,0,0,2.79-.34A5,5,0,0,0,125,34.44a6.26,6.26,0,0,0,1.5-2.44,11.81,11.81,0,0,0,.55-3.95,11.83,11.83,0,0,0-.55-3.91,6.28,6.28,0,0,0-1.5-2.48,5.3,5.3,0,0,0-2.17-1.29,8.77,8.77,0,0,0-2.59-.37h-1.06a9.81,9.81,0,0,0-1.06.08V35.94Z"/><path class="cls-1" d="M136.22,16.28h13.3a10.1,10.1,0,0,1,.2,2,10.58,10.58,0,0,1-.2,2.06H141v5.08h6.78a11.05,11.05,0,0,1,.2,2,10.9,10.9,0,0,1-.2,2.06H141v6.19h8.77a10.25,10.25,0,0,1,.2,2,10.51,10.51,0,0,1-.2,2.06H136.22V16.28Z"/><path class="cls-1" d="M158,28.87a14.78,14.78,0,0,1-2-.93,6.18,6.18,0,0,1-1.5-1.21,5.12,5.12,0,0,1-1-1.68,7.07,7.07,0,0,1-.34-2.35,7.09,7.09,0,0,1,.57-2.93,5.82,5.82,0,0,1,1.62-2.14,7,7,0,0,1,2.51-1.3,11.49,11.49,0,0,1,3.29-.44,16.22,16.22,0,0,1,3.12.29,24.28,24.28,0,0,1,3,.85,11.78,11.78,0,0,1-1,3.72l-1-.39a8.52,8.52,0,0,0-1.08-.33,10.23,10.23,0,0,0-1.29-.21,13.36,13.36,0,0,0-1.63-.08,6.24,6.24,0,0,0-1.13.1,3,3,0,0,0-1,.35,2,2,0,0,0-.75.77,2.58,2.58,0,0,0-.3,1.32,2.35,2.35,0,0,0,.23,1.09,2.27,2.27,0,0,0,.62.75,3.89,3.89,0,0,0,.88.53l1,.4,2,.75c.82.33,1.57.67,2.25,1a6.21,6.21,0,0,1,1.71,1.29A5.35,5.35,0,0,1,167.83,30a8.09,8.09,0,0,1,.39,2.69,7.45,7.45,0,0,1-.6,3A6.33,6.33,0,0,1,165.87,38a8.46,8.46,0,0,1-2.82,1.54,12.57,12.57,0,0,1-3.86.55c-.72,0-1.36,0-1.92-.07a13.24,13.24,0,0,1-1.62-.21c-.51-.1-1-.22-1.52-.37s-1-.34-1.56-.56a15,15,0,0,1,.36-2c.17-.69.38-1.38.62-2.07a17.68,17.68,0,0,0,2.57.83,11.86,11.86,0,0,0,2.58.28,5.87,5.87,0,0,0,3.23-.77,2.6,2.6,0,0,0,1.18-2.33,2.78,2.78,0,0,0-.28-1.3,3,3,0,0,0-.72-.89,5.43,5.43,0,0,0-1-.6L160,29.62l-2-.75Z"/><path class="cls-1" d="M171.82,16.28a15,15,0,0,1,2.38-.19,15.55,15.55,0,0,1,2.42.19V39.73a15.34,15.34,0,0,1-2.38.19,15.18,15.18,0,0,1-2.42-.19V16.28Z"/><path class="cls-1" d="M194.24,27.56a14.78,14.78,0,0,1,2.35-.19,15.34,15.34,0,0,1,2.38.19V39.08a15.48,15.48,0,0,1-3.54.83,28.88,28.88,0,0,1-3.21.21,12.89,12.89,0,0,1-5-.9,9.69,9.69,0,0,1-3.59-2.51,10.58,10.58,0,0,1-2.15-3.83,15.58,15.58,0,0,1-.72-4.83,15.11,15.11,0,0,1,.75-4.84,11.12,11.12,0,0,1,2.17-3.86,9.74,9.74,0,0,1,3.49-2.55,11.54,11.54,0,0,1,4.71-.91,19.14,19.14,0,0,1,2.92.2,11.21,11.21,0,0,1,2.82.81,7,7,0,0,1-.39,1.91c-.22.62-.46,1.24-.72,1.87a14.92,14.92,0,0,0-2-.55,11.54,11.54,0,0,0-2.09-.16,5.85,5.85,0,0,0-4.8,2c-1.13,1.35-1.69,3.37-1.69,6s.56,4.67,1.67,6a6,6,0,0,0,4.89,2,5.9,5.9,0,0,0,1-.07c.29,0,.56-.08.8-.13V27.56Z"/><path class="cls-1" d="M203.32,16.28a10.14,10.14,0,0,1,1.92-.19,11,11,0,0,1,2,.19l9.06,14.94V16.28a13.67,13.67,0,0,1,2.25-.19,9.65,9.65,0,0,1,2,.19V39.73a10.41,10.41,0,0,1-1.89.19,11.2,11.2,0,0,1-2-.19l-9.13-14.91V39.73a11.53,11.53,0,0,1-2.12.19,11.05,11.05,0,0,1-2.09-.19V16.28Z"/><path class="cls-1" d="M22.83,49.91H21.51a2,2,0,0,0-1.92-1A2.52,2.52,0,0,0,17,51.66a2.63,2.63,0,0,0,2.62,2.8,2,2,0,0,0,1.95-1.18h1.32a3.26,3.26,0,0,1-3.28,2.23,3.71,3.71,0,0,1-3.84-3.87,3.66,3.66,0,0,1,3.78-3.81A3.17,3.17,0,0,1,22.83,49.91Z"/><path class="cls-1" d="M33.26,55.26H32.15l-.67-4c-.09-.53-.2-1.17-.26-1.67h0a10.64,10.64,0,0,1-.51,1.67l-1.65,4h-.93l-1.66-4.13a12.12,12.12,0,0,1-.52-1.58h-.05c-.06.48-.12,1-.21,1.56L25,55.26h-1.1l1.32-7.19h1.16l1.83,4.55a8.72,8.72,0,0,1,.38,1.16h0A11.28,11.28,0,0,1,29,52.62l1.88-4.55H32Z"/><path class="cls-1" d="M38.09,47.83a3.73,3.73,0,0,1,3.84,3.83,3.85,3.85,0,1,1-7.69,0A3.74,3.74,0,0,1,38.09,47.83Zm0,6.6a2.77,2.77,0,0,0,0-5.54,2.6,2.6,0,0,0-2.62,2.77A2.68,2.68,0,0,0,38.09,54.43Z"/><path class="cls-1" d="M47.66,49.13h-2v6.13H44.45V49.13H42.4V48.07h5.26Z"/><path class="cls-1" d="M48.85,48.07H50v1h0a3.28,3.28,0,0,1,2.7-1.26,3.63,3.63,0,0,1,3.61,3.83,3.68,3.68,0,0,1-3.66,3.85,3.39,3.39,0,0,1-2.65-1.21h0v4.48H48.85Zm3.66.79a2.63,2.63,0,0,0-2.58,2.84,2.65,2.65,0,0,0,2.61,2.76,2.81,2.81,0,0,0,0-5.6Z"/><path class="cls-1" d="M58,48.07h1.19v3.25c0,.54,0,1.63,0,2.21h0a11.86,11.86,0,0,1,1-1.43l3.08-4h1.06v7.19H63.1V52c0-.54,0-1.62,0-2.21h0a11.86,11.86,0,0,1-1,1.43l-3.08,4H58Z"/><path class="cls-1" d="M76.43,55.26H75.24V52H71.3v3.26H70.11V48.07H71.3V51h3.94V48.07h1.19Z"/><path class="cls-1" d="M85.54,55.26H84.36v-1h0a3.38,3.38,0,0,1-2.63,1.21,3.84,3.84,0,0,1,.08-7.68,3.22,3.22,0,0,1,2.56,1.27h0v-1h1.18Zm-3.67-.8a2.67,2.67,0,0,0,2.59-2.76,2.62,2.62,0,1,0-2.59,2.76Z"/><path class="cls-1" d="M100.18,55.26H99.07l-.68-4c-.09-.53-.19-1.17-.25-1.67h0a9.68,9.68,0,0,1-.51,1.67l-1.65,4H95l-1.65-4.13a12.12,12.12,0,0,1-.52-1.58h0c-.06.48-.12,1-.21,1.56l-.7,4.15h-1.1l1.32-7.19h1.16l1.83,4.55a8.65,8.65,0,0,1,.37,1.16h0a9.3,9.3,0,0,1,.39-1.16l1.87-4.55h1.13Z"/><path class="cls-1" d="M101.66,48.07h1.18v3.25c0,.54,0,1.63,0,2.21h0a11.86,11.86,0,0,1,1-1.43l3.08-4H108v7.19h-1.18V52c0-.54,0-1.62,0-2.21h0a11.86,11.86,0,0,1-1,1.43l-3.08,4h-1.06Z"/><path class="cls-1" d="M110.05,48.07h1.18v1h0A3.3,3.3,0,0,1,114,47.83a3.63,3.63,0,0,1,3.61,3.83,3.68,3.68,0,0,1-3.66,3.85,3.43,3.43,0,0,1-2.66-1.21h0v4.48h-1.18Zm3.66.79a2.63,2.63,0,0,0-2.58,2.84,2.65,2.65,0,0,0,2.61,2.76,2.81,2.81,0,0,0,0-5.6Z"/><path class="cls-1" d="M122.92,48.07h1.18v3.25c0,.54,0,1.63,0,2.21h0a11.86,11.86,0,0,1,1-1.43l3.08-4h1.06v7.19h-1.18V52c0-.54,0-1.62,0-2.21h0a11.86,11.86,0,0,1-1,1.43l-3.08,4h-1.06Z"/><path class="cls-1" d="M137.63,55.26h-1.19V52h-3.95v3.26h-1.18V48.07h1.18V51h3.95V48.07h1.19Z"/><path class="cls-1" d="M146.74,55.26h-1.18v-1h0a3.4,3.4,0,0,1-2.63,1.21,3.84,3.84,0,0,1,.07-7.68,3.22,3.22,0,0,1,2.57,1.27h0v-1h1.18Zm-3.68-.8a2.67,2.67,0,0,0,2.6-2.76,2.62,2.62,0,1,0-2.6,2.76Z"/><path class="cls-1" d="M154.47,55.26h-1.18V51.67h0a2.39,2.39,0,0,1-2,1.14c-1.19,0-2.57-.78-2.57-3.14v-1.6h1.19v1.51c0,1.38.63,2.15,1.6,2.15,1.13,0,1.85-.81,1.85-2.4V48.07h1.18Z"/><path class="cls-1" d="M163.18,51.56a2.59,2.59,0,0,1,0,.44h-5.87a2.59,2.59,0,0,0,2.56,2.46,2.17,2.17,0,0,0,1.84-.87h1.37a3.52,3.52,0,0,1-3.18,1.92,3.74,3.74,0,0,1-3.82-3.95,3.58,3.58,0,0,1,3.57-3.73A3.52,3.52,0,0,1,163.18,51.56ZM157.3,51h4.64a2.34,2.34,0,0,0-2.32-2.15A2.31,2.31,0,0,0,157.3,51Z"/></svg>